<?xml version="1.0" encoding="UTF-8" standalone="no"?>
<!DOCTYPE svg PUBLIC "-//W3C//DTD SVG 1.1//EN" "http://www.w3.org/Graphics/SVG/1.1/DTD/svg11.dtd">
<svg width="100%" height="100%" viewBox="0 0 641 933" version="1.1" xmlns="http://www.w3.org/2000/svg" xmlns:xlink="http://www.w3.org/1999/xlink" xml:space="preserve" xmlns:serif="http://www.serif.com/" style="fill-rule:evenodd;clip-rule:evenodd;stroke-linejoin:round;stroke-miterlimit:2;">
    <g id="Artboard1" transform="matrix(1,0,0,1,-918.581,-383.701)">
        <rect x="918.581" y="383.701" width="640.788" height="932.912" style="fill:none;"/>
        <g transform="matrix(1,0,0,1,0.581185,0.701175)">
            <path d="M1062.64,1168.87C1112.67,1094.16 1188.69,1038.92 1240.16,1027.02C1288.54,1015.83 1333.66,1060 1371.42,1097.46C1335.45,1021.97 1296.79,955.882 1240.16,952.716C1163.71,948.442 1097.39,1030.78 1062.64,1168.87Z" style="fill:rgb(44,170,225);"/>
        </g>
        <g transform="matrix(1,0,0,1,0.581185,0.701175)">
            <circle cx="1243.21" cy="715.46" r="65.176" style="fill:rgb(184,16,14);"/>
        </g>
        <g transform="matrix(1,0,0,1,0.581185,0.701175)">
            <path d="M1125.36,814.728C1144.14,879.452 1178.64,916.048 1240.16,916.048C1284.25,916.048 1343.61,871.681 1389.76,824.377C1339.89,851.176 1284.22,875.624 1240.16,874.016C1197.12,872.445 1159.02,854.087 1125.36,814.728Z" style="fill:rgb(44,46,132);"/>
        </g>
        <g transform="matrix(1,0,0,1,0.581185,0.701175)">
            <path d="M1158.53,669.876C1146.92,698.755 1142.77,726.569 1155.44,750.16C1169.05,775.48 1205.12,807.437 1240.16,821.798C1181.17,805.09 1116.56,774.863 1115.92,728.545C1115.59,704.377 1133.68,680.914 1158.53,669.876Z" style="fill:rgb(49,39,131);"/>
        </g>
        <g transform="matrix(1,0,0,1,0.581185,0.701175)">
            <path d="M1217.03,485.841C1301.66,568.535 1352.22,631.736 1350.6,703.842C1349.71,743.504 1333.18,783.47 1307.37,814.728C1365.56,784.258 1420.28,751.949 1422.85,697.049C1425.71,636.059 1317.21,523.864 1217.03,485.841" style="fill:rgb(14,113,184);"/>
        </g>
    </g>
</svg>
